<?xml version="1.0" encoding="UTF-8"?>
<svg xmlns="http://www.w3.org/2000/svg" xmlns:xlink="http://www.w3.org/1999/xlink" width="64pt" height="124pt" viewBox="0 0 64 124">
<path fill-rule="nonzero" fill="rgb(13.729858%, 12.159729%, 12.548828%)" fill-opacity="1" d="M 10.769531 115.1875 L 6.523438 115.1875 L 8.617188 108.835938 Z M 13.316406 122.707031 L 18.609375 122.707031 C 18.609375 122.707031 12.753906 106.238281 12.75 106.234375 C 12.09375 104.382812 10.675781 104.097656 10.21875 104.097656 L 5.105469 104.097656 C 5.890625 104.734375 6.160156 105.15625 6.160156 105.796875 C 6.160156 106.1875 6.074219 106.488281 5.648438 107.75 L 0.582031 122.707031 L 4.042969 122.707031 L 5.570312 118.066406 L 11.746094 118.066406 Z M 13.316406 122.707031 "/>
<path fill-rule="nonzero" fill="rgb(13.729858%, 12.159729%, 12.548828%)" fill-opacity="1" d="M 34.773438 120.070312 L 34.773438 114.132812 C 34.773438 112.996094 34.53125 112.414062 33.726562 111.695312 L 37.546875 111.699219 C 38.730469 111.699219 39.742188 112.65625 39.742188 113.863281 L 39.742188 122.289062 C 37.875 122.835938 35.980469 123.140625 34.253906 123.140625 C 27.636719 123.140625 23.441406 119.28125 23.441406 113.570312 C 23.441406 107.996094 27.644531 103.65625 34.34375 103.65625 C 35.867188 103.65625 37.3125 103.921875 38.628906 104.398438 L 38.628906 108.121094 C 37.449219 107.347656 35.964844 106.882812 34.34375 106.882812 C 31.132812 106.882812 28.601562 109.097656 28.601562 113.1875 C 28.601562 117.523438 30.519531 120.179688 33.59375 120.179688 C 33.976562 120.179688 34.359375 120.152344 34.773438 120.070312 "/>
<path fill-rule="nonzero" fill="rgb(13.729858%, 12.159729%, 12.548828%)" fill-opacity="1" d="M 52.992188 106.5 C 52.992188 105.171875 51.945312 104.097656 50.652344 104.097656 L 46.949219 104.097656 C 47.757812 104.8125 47.996094 105.394531 47.996094 106.53125 L 47.996094 122.707031 L 52.992188 122.707031 L 52.992188 114.882812 L 58.675781 114.882812 L 58.675781 122.707031 L 63.65625 122.707031 L 63.65625 104.148438 L 58.675781 104.148438 L 58.675781 111.726562 L 52.992188 111.726562 Z M 52.992188 106.5 "/>
<path fill-rule="nonzero" fill="rgb(69.050598%, 6.147766%, 15.592957%)" fill-opacity="1" d="M 45.5625 91.6875 C 49.699219 88.84375 53.316406 84.449219 53.316406 75.144531 L 53.316406 19.3125 L 57.453125 19.3125 L 57.453125 75.144531 C 57.453125 85.484375 52.28125 89.621094 45.5625 91.6875 "/>
<path fill-rule="nonzero" fill="rgb(69.050598%, 6.147766%, 15.592957%)" fill-opacity="1" d="M 48.925781 91.6875 C 52.804688 89.878906 59.523438 86.519531 59.523438 75.144531 L 59.523438 19.3125 L 63.65625 19.3125 L 63.65625 75.144531 C 63.65625 89.105469 52.804688 91.171875 48.925781 91.6875 "/>
<path fill-rule="nonzero" fill="rgb(69.050598%, 6.147766%, 15.592957%)" fill-opacity="1" d="M 42.976562 91.6875 C 46.0625 88.585938 47.113281 82.382812 47.113281 74.109375 L 47.113281 19.3125 L 51.25 19.3125 L 51.25 75.144531 C 51.25 84.421875 48.148438 89.105469 42.976562 91.6875 "/>
<path fill-rule="nonzero" fill="rgb(13.729858%, 12.159729%, 12.548828%)" fill-opacity="1" d="M 22.816406 0.699219 C 26.953125 3.542969 30.570312 7.9375 30.570312 17.242188 L 30.570312 81.347656 L 34.707031 81.347656 L 34.707031 17.242188 C 34.707031 6.902344 29.535156 2.765625 22.816406 0.699219 "/>
<path fill-rule="nonzero" fill="rgb(13.729858%, 12.159729%, 12.548828%)" fill-opacity="1" d="M 26.179688 0.699219 C 30.054688 2.507812 36.777344 5.867188 36.777344 17.242188 L 36.777344 81.347656 L 40.910156 81.347656 L 40.910156 17.242188 C 40.910156 3.285156 30.054688 1.214844 26.179688 0.699219 "/>
<path fill-rule="nonzero" fill="rgb(13.729858%, 12.159729%, 12.548828%)" fill-opacity="1" d="M 20.230469 0.699219 C 23.316406 3.800781 24.367188 10.003906 24.367188 18.277344 L 24.367188 81.347656 L 28.503906 81.347656 L 28.503906 17.242188 C 28.503906 7.964844 25.398438 3.285156 20.230469 0.699219 "/>
<path fill-rule="nonzero" fill="rgb(0%, 42.141724%, 23.127747%)" fill-opacity="1" d="M 19.714844 91.6875 C 15.578125 88.84375 11.960938 84.449219 11.960938 75.144531 L 11.960938 19.3125 L 7.824219 19.3125 L 7.824219 75.144531 C 7.824219 85.484375 12.992188 89.621094 19.714844 91.6875 "/>
<path fill-rule="nonzero" fill="rgb(0%, 42.141724%, 23.127747%)" fill-opacity="1" d="M 16.351562 91.6875 C 12.472656 89.878906 5.753906 86.519531 5.753906 75.144531 L 5.753906 19.3125 L 1.617188 19.3125 L 1.617188 75.144531 C 1.617188 89.105469 12.472656 91.171875 16.351562 91.6875 "/>
<path fill-rule="nonzero" fill="rgb(0%, 42.141724%, 23.127747%)" fill-opacity="1" d="M 22.300781 91.6875 C 19.210938 88.585938 18.164062 82.382812 18.164062 74.109375 L 18.164062 19.3125 L 14.027344 19.3125 L 14.027344 75.144531 C 14.027344 84.421875 17.128906 89.105469 22.300781 91.6875 "/>
</svg>
